<svg xmlns="http://www.w3.org/2000/svg">
  <defs>
    <symbol viewBox="0 0 239 36" id="check">
      <path
        d="M223.698 0.121967C222.876 0.0127286 222.122 0.589286 222.013 1.40973L220.251 14.7798C220.143 15.6002 220.722 16.3539 221.544 16.4631C222.366 16.5724 223.12 15.9958 223.228 15.1753L224.795 3.29088L236.703 4.87323C237.525 4.98246 238.279 4.40591 238.387 3.58546C238.495 2.76501 237.916 2.01135 237.094 1.90211L223.698 0.121967ZM3.06897 33.2337C21.7695 14.4108 49.0155 8.54965 78.6307 9.14135C108.229 9.73271 139.896 16.7629 167.148 23.4108C180.743 26.7273 193.271 29.9565 203.818 32.2133C214.32 34.4604 223.089 35.7988 229.115 35.2278C232.125 34.9426 234.709 34.161 236.452 32.531C238.278 30.823 238.927 28.4335 238.566 25.5623C238.212 22.7482 236.884 19.3439 234.619 15.2905C232.342 11.2163 229.061 6.38484 224.693 0.696937L222.311 2.51812C226.63 8.14281 229.818 12.8471 231.997 16.7474C234.188 20.6685 235.303 23.6773 235.587 25.9307C235.862 28.1268 235.341 29.4589 234.397 30.3422C233.369 31.3035 231.582 31.9829 228.827 32.2439C223.322 32.7654 214.98 31.5372 204.443 29.2826C193.952 27.0378 181.511 23.8304 167.856 20.4993C140.608 13.852 108.65 6.74329 78.686 6.14461C48.7387 5.54628 20.4847 11.444 0.935308 31.1214L3.06897 33.2337Z"
        fill="var(--fill, #131721)"
      />
    </symbol>

    <symbol viewBox="0 0 219 47" id="wiggly">
      <path
        d="M5.88098 2.99551C5.09185 2.87231 4.28156 3.44601 4.07115 4.27692L0.642367 17.8173C0.43196 18.6482 0.901107 19.4217 1.69024 19.5449C2.47937 19.6681 3.28965 19.0944 3.50006 18.2635L6.54787 6.22757L17.9786 8.0122C18.7678 8.13541 19.5781 7.5617 19.7885 6.73079C19.9989 5.89989 19.5297 5.12643 18.7406 5.00322L5.88098 2.99551ZM251.54 17.3457C196.83 -14.0987 148.779 5.5143 107.965 21.1682C87.48 29.025 69.0175 35.7987 52.2409 35.0538C35.6369 34.3166 20.4822 26.1845 6.77974 3.59391L4.22026 5.40609C18.2678 28.5655 34.1131 37.3084 51.7813 38.0929C69.277 38.8697 88.359 31.8118 108.713 24.0052C149.576 8.33265 196.382 -10.7074 249.883 20.0421L251.54 17.3457Z"
        fill="var(--fill, #131721)"
      />
    </symbol>

    <symbol viewBox="0 0 272 61" id="swoop-left">
      <path
        d="M8.7084 0.716652C7.99433 0.396793 7.09831 0.769249 6.70708 1.54856L0.331636 14.2481C-0.0595934 15.0274 0.202119 15.9185 0.916187 16.2383C1.63026 16.5582 2.52628 16.1857 2.91751 15.4064L8.58457 4.11793L18.928 8.75118C19.6421 9.07103 20.5381 8.69858 20.9294 7.91927C21.3206 7.13996 21.0589 6.24891 20.3448 5.92905L8.7084 0.716652ZM271.36 30.4891C245.865 26.8288 218.75 30.4982 191.988 36.1631C178.605 38.9961 165.273 42.3369 152.27 45.5204C139.254 48.7071 126.565 51.7369 114.405 53.9677C90.0541 58.4349 68.0436 59.6519 50.0267 52.6433C32.0964 45.6683 17.9088 30.4577 9.41516 1.53947L6.58487 2.71596C15.2607 32.2544 29.9078 48.1936 48.7281 55.5148C67.4617 62.8022 90.1175 61.4615 114.6 56.9701C126.856 54.7216 139.624 51.672 152.639 48.4857C165.666 45.2961 178.939 41.9703 192.263 39.1497C218.918 33.5075 245.635 29.9219 270.64 33.5119L271.36 30.4891Z"
        fill="var(--fill, #131721)"
      />
    </symbol>
  </defs>
</svg>
