<svg xmlns="http://www.w3.org/2000/svg">
  <defs>
    <symbol viewBox="0 0 239 36" id="check">
      <path
        d="M223.698 0.121967C222.876 0.0127286 222.122 0.589286 222.013 1.40973L220.251 14.7798C220.143 15.6002 220.722 16.3539 221.544 16.4631C222.366 16.5724 223.12 15.9958 223.228 15.1753L224.795 3.29088L236.703 4.87323C237.525 4.98246 238.279 4.40591 238.387 3.58546C238.495 2.76501 237.916 2.01135 237.094 1.90211L223.698 0.121967ZM3.06897 33.2337C21.7695 14.4108 49.0155 8.54965 78.6307 9.14135C108.229 9.73271 139.896 16.7629 167.148 23.4108C180.743 26.7273 193.271 29.9565 203.818 32.2133C214.32 34.4604 223.089 35.7988 229.115 35.2278C232.125 34.9426 234.709 34.161 236.452 32.531C238.278 30.823 238.927 28.4335 238.566 25.5623C238.212 22.7482 236.884 19.3439 234.619 15.2905C232.342 11.2163 229.061 6.38484 224.693 0.696937L222.311 2.51812C226.63 8.14281 229.818 12.8471 231.997 16.7474C234.188 20.6685 235.303 23.6773 235.587 25.9307C235.862 28.1268 235.341 29.4589 234.397 30.3422C233.369 31.3035 231.582 31.9829 228.827 32.2439C223.322 32.7654 214.98 31.5372 204.443 29.2826C193.952 27.0378 181.511 23.8304 167.856 20.4993C140.608 13.852 108.65 6.74329 78.686 6.14461C48.7387 5.54628 20.4847 11.444 0.935308 31.1214L3.06897 33.2337Z"
        fill="var(--fill, #131721)"
      />
    </symbol>

    <symbol viewBox="0 0 219 47" id="wiggly">
      <path
        d="M5.88098 2.99551C5.09185 2.87231 4.28156 3.44601 4.07115 4.27692L0.642367 17.8173C0.43196 18.6482 0.901107 19.4217 1.69024 19.5449C2.47937 19.6681 3.28965 19.0944 3.50006 18.2635L6.54787 6.22757L17.9786 8.0122C18.7678 8.13541 19.5781 7.5617 19.7885 6.73079C19.9989 5.89989 19.5297 5.12643 18.7406 5.00322L5.88098 2.99551ZM251.54 17.3457C196.83 -14.0987 148.779 5.5143 107.965 21.1682C87.48 29.025 69.0175 35.7987 52.2409 35.0538C35.6369 34.3166 20.4822 26.1845 6.77974 3.59391L4.22026 5.40609C18.2678 28.5655 34.1131 37.3084 51.7813 38.0929C69.277 38.8697 88.359 31.8118 108.713 24.0052C149.576 8.33265 196.382 -10.7074 249.883 20.0421L251.54 17.3457Z"
        fill="var(--fill, #131721)"
      />
    </symbol>

    <symbol viewBox="0 0 272 61" id="swoop-left">
      <path
        d="M8.7084 0.716652C7.99433 0.396793 7.09831 0.769249 6.70708 1.54856L0.331636 14.2481C-0.0595934 15.0274 0.202119 15.9185 0.916187 16.2383C1.63026 16.5582 2.52628 16.1857 2.91751 15.4064L8.58457 4.11793L18.928 8.75118C19.6421 9.07103 20.5381 8.69858 20.9294 7.91927C21.3206 7.13996 21.0589 6.24891 20.3448 5.92905L8.7084 0.716652ZM271.36 30.4891C245.865 26.8288 218.75 30.4982 191.988 36.1631C178.605 38.9961 165.273 42.3369 152.27 45.5204C139.254 48.7071 126.565 51.7369 114.405 53.9677C90.0541 58.4349 68.0436 59.6519 50.0267 52.6433C32.0964 45.6683 17.9088 30.4577 9.41516 1.53947L6.58487 2.71596C15.2607 32.2544 29.9078 48.1936 48.7281 55.5148C67.4617 62.8022 90.1175 61.4615 114.6 56.9701C126.856 54.7216 139.624 51.672 152.639 48.4857C165.666 45.2961 178.939 41.9703 192.263 39.1497C218.918 33.5075 245.635 29.9219 270.64 33.5119L271.36 30.4891Z"
        fill="var(--fill, #131721)"
      />
    </symbol>

    <symbol viewBox="0 0 73 52" id="wiggly-down">
      <path
        d="M2 12.5L0.5 12.5L2 12.5ZM36.4393 51.5607C37.0251 52.1464 37.9749 52.1464 38.5607 51.5607L48.1066 42.0147C48.6924 41.4289 48.6924 40.4792 48.1066 39.8934C47.5208 39.3076 46.5711 39.3076 45.9853 39.8934L37.5 48.3787L29.0147 39.8934C28.4289 39.3076 27.4792 39.3076 26.8934 39.8934C26.3076 40.4792 26.3076 41.4289 26.8934 42.0147L36.4393 51.5607ZM69.0048 1.11961C69.2245 3.86648 68.456 5.63371 67.1204 6.85095C65.7082 8.13808 63.4689 8.98751 60.4309 9.41634C54.3468 10.2752 45.9336 9.34283 37.2069 8.12698C28.6027 6.92819 19.7035 5.45453 12.9982 5.3924C9.65974 5.36147 6.6415 5.67177 4.40914 6.67763C3.26844 7.19161 2.27172 7.91417 1.56402 8.92112C0.848102 9.93975 0.499989 11.1475 0.5 12.5L3.5 12.5C3.49999 11.6817 3.70265 11.0955 4.01846 10.6461C4.34248 10.1851 4.85844 9.76566 5.64156 9.4128C7.25683 8.68499 9.73077 8.36225 12.9704 8.39227C19.4214 8.45205 28.0222 9.87629 36.7929 11.0983C45.4413 12.3032 54.2781 13.3146 60.8502 12.3869C64.1404 11.9225 67.0808 10.9461 69.1413 9.06822C71.2784 7.12047 72.2755 4.38352 71.9952 0.880385L69.0048 1.11961ZM0.5 12.5C0.500007 13.4348 0.673426 14.2953 1.06837 15.0535C1.46773 15.8201 2.04961 16.3973 2.73434 16.8223C4.03635 17.6305 5.7435 17.9039 7.43106 18.0346C9.12789 18.166 11.1861 18.1684 13.1755 18.244C15.225 18.322 17.3494 18.4782 19.4499 18.9072C23.6106 19.7569 27.6553 21.6675 30.7087 26.2047C33.8028 30.8022 36 38.2738 36 50.5H39C39 37.9762 36.7597 29.8228 33.1976 24.5297C29.5948 19.1762 24.7645 16.9306 20.0502 15.9678C17.7132 15.4906 15.4001 15.3265 13.2895 15.2462C11.1187 15.1636 9.29407 15.1699 7.66276 15.0435C6.0222 14.9165 4.95591 14.6703 4.31649 14.2734C4.03052 14.0959 3.84969 13.8991 3.72902 13.6675C3.60394 13.4274 3.5 13.0652 3.5 12.5L0.5 12.5Z"
        fill="var(--fill, #FFCB47)"
      />
    </symbol>
  </defs>
</svg>
