<svg xmlns="http://www.w3.org/2000/svg">
  <defs>
    <symbol viewBox="0 0 24 24" id="link">
      <path
        d="m10 17.55l-1.77 1.72a2.47 2.47 0 0 1-3.5-3.5l4.54-4.55a2.46 2.46 0 0 1 3.39-.09l.12.1a1 1 0 0 0 1.4-1.43a2.75 2.75 0 0 0-.18-.21a4.46 4.46 0 0 0-6.09.22l-4.6 4.55a4.48 4.48 0 0 0 6.33 6.33L11.37 19A1 1 0 0 0 10 17.55ZM20.69 3.31a4.49 4.49 0 0 0-6.33 0L12.63 5A1 1 0 0 0 14 6.45l1.73-1.72a2.47 2.47 0 0 1 3.5 3.5l-4.54 4.55a2.46 2.46 0 0 1-3.39.09l-.12-.1a1 1 0 0 0-1.4 1.43a2.75 2.75 0 0 0 .23.21a4.47 4.47 0 0 0 6.09-.22l4.55-4.55a4.49 4.49 0 0 0 .04-6.33Z"
      />
    </symbol>

    <symbol viewBox="0 0 14 16" id="info">
      <path
        fill-rule="evenodd"
        d="M6.3 5.69a.942.942 0 0 1-.28-.7c0-.28.09-.52.28-.7c.19-.18.42-.28.7-.28c.28 0 .52.09.7.28c.18.19.28.42.28.7c0 .28-.09.52-.28.7a1 1 0 0 1-.7.3c-.28 0-.52-.11-.7-.3zM8 7.99c-.02-.25-.11-.48-.31-.69c-.2-.19-.42-.3-.69-.31H6c-.27.02-.48.13-.69.31c-.2.2-.3.44-.31.69h1v3c.02.27.11.5.31.69c.2.2.42.31.69.31h1c.27 0 .48-.11.69-.31c.2-.19.3-.42.31-.69H8V7.98v.01zM7 2.3c-3.14 0-5.7 2.54-5.7 5.68c0 3.14 2.56 5.7 5.7 5.7s5.7-2.55 5.7-5.7c0-3.15-2.56-5.69-5.7-5.69v.01zM7 .98c3.86 0 7 3.14 7 7s-3.14 7-7 7s-7-3.12-7-7s3.14-7 7-7z"
      ></path>
    </symbol>
  </defs>
</svg>
