<svg xmlns="http://www.w3.org/2000/svg">
  <defs>
    <symbol viewBox="0 0 24 24" id="link">
      <path
        fill="var(--fill, currentColor)"
        d="m10 17.55l-1.77 1.72a2.47 2.47 0 0 1-3.5-3.5l4.54-4.55a2.46 2.46 0 0 1 3.39-.09l.12.1a1 1 0 0 0 1.4-1.43a2.75 2.75 0 0 0-.18-.21a4.46 4.46 0 0 0-6.09.22l-4.6 4.55a4.48 4.48 0 0 0 6.33 6.33L11.37 19A1 1 0 0 0 10 17.55ZM20.69 3.31a4.49 4.49 0 0 0-6.33 0L12.63 5A1 1 0 0 0 14 6.45l1.73-1.72a2.47 2.47 0 0 1 3.5 3.5l-4.54 4.55a2.46 2.46 0 0 1-3.39.09l-.12-.1a1 1 0 0 0-1.4 1.43a2.75 2.75 0 0 0 .23.21a4.47 4.47 0 0 0 6.09-.22l4.55-4.55a4.49 4.49 0 0 0 .04-6.33Z"
      />
    </symbol>

    <symbol viewBox="0 0 24 24" id="mail-at">
      <path
        fill="var(--fill, currentColor)"
        d="M12 2C6.48 2 2 6.48 2 12s4.48 10 10 10h5v-2h-5c-4.34 0-8-3.66-8-8s3.66-8 8-8s8 3.66 8 8v1.43c0 .79-.71 1.57-1.5 1.57s-1.5-.78-1.5-1.57V12c0-2.76-2.24-5-5-5s-5 2.24-5 5s2.24 5 5 5c1.38 0 2.64-.56 3.54-1.47c.65.89 1.77 1.47 2.96 1.47c1.97 0 3.5-1.6 3.5-3.57V12c0-5.52-4.48-10-10-10zm0 13c-1.66 0-3-1.34-3-3s1.34-3 3-3s3 1.34 3 3s-1.34 3-3 3z"
      ></path>
    </symbol>

    <symbol viewBox="0 0 24 24" id="mail-plane">
      <path
        fill="var(--fill, currentColor)"
        d="M17.187 19.181L24 4.755L0 12.386l9.196 1.963l.043 4.896l2.759-2.617l-2.147-2.076l7.336 4.63z"
      ></path>
    </symbol>

    <symbol viewBox="0 0 24 24" id="mail-send">
      <path
        fill="var(--fill, currentColor)"
        d="M22 20.007a1 1 0 0 1-.992.993H2.992A.993.993 0 0 1 2 20.007V19h18V7.3l-8 7.2l-10-9V4a1 1 0 0 1 1-1h18a1 1 0 0 1 1 1v16.007zM4.434 5L12 11.81L19.566 5H4.434zM0 15h8v2H0v-2zm0-5h5v2H0v-2z"
      ></path>
    </symbol>

    <symbol viewBox="0 0 14 16" id="info">
      <path
        fill="var(--fill, currentColor)"
        d="M6.3 5.69a.942.942 0 0 1-.28-.7c0-.28.09-.52.28-.7c.19-.18.42-.28.7-.28c.28 0 .52.09.7.28c.18.19.28.42.28.7c0 .28-.09.52-.28.7a1 1 0 0 1-.7.3c-.28 0-.52-.11-.7-.3zM8 7.99c-.02-.25-.11-.48-.31-.69c-.2-.19-.42-.3-.69-.31H6c-.27.02-.48.13-.69.31c-.2.2-.3.44-.31.69h1v3c.02.27.11.5.31.69c.2.2.42.31.69.31h1c.27 0 .48-.11.69-.31c.2-.19.3-.42.31-.69H8V7.98v.01zM7 2.3c-3.14 0-5.7 2.54-5.7 5.68c0 3.14 2.56 5.7 5.7 5.7s5.7-2.55 5.7-5.7c0-3.15-2.56-5.69-5.7-5.69v.01zM7 .98c3.86 0 7 3.14 7 7s-3.14 7-7 7s-7-3.12-7-7s3.14-7 7-7z"
      ></path>
    </symbol>

    <symbol viewBox="0 0 24 24" id="github">
      <path
        fill="var(--fill, currentColor)"
        d="M21.035 5.257c.91 1.092 1.364 2.366 1.364 3.822c0 5.277-3.002 6.824-5.823 7.279c.364.637.455 1.365.455 2.093v3.73c0 .455-.273.728-.637.728a.718.718 0 0 1-.728-.728v-3.73a2.497 2.497 0 0 0-.728-2.093l.455-1.183c2.821-.364 5.733-1.274 5.733-6.187c0-1.183-.455-2.275-1.274-3.185l-.182-.727a4.04 4.04 0 0 0 .09-2.73c-.454.09-1.364.273-2.91 1.365l-.547.09a13.307 13.307 0 0 0-6.55 0l-.547-.09C7.57 2.71 6.66 2.437 6.204 2.437c-.273.91-.273 1.91.09 2.73l-.181.727c-.91.91-1.365 2.093-1.365 3.185c0 4.822 2.73 5.823 5.732 6.187l.364 1.183c-.546.546-.819 1.274-.728 2.002v3.821a.718.718 0 0 1-.728.728a.718.718 0 0 1-.728-.728V20.18c-3.002.637-4.185-.91-5.095-2.092c-.455-.546-.819-1.001-1.274-1.092c-.09-.091-.364-.455-.273-.819c.091-.364.455-.637.82-.455c.91.182 1.455.91 2 1.547c.82 1.092 1.639 2.092 4.095 1.547v-.364c-.09-.728.091-1.456.455-2.093c-2.73-.546-5.914-2.093-5.914-7.279c0-1.456.455-2.73 1.365-3.822c-.273-1.273-.182-2.638.273-3.73l.455-.364C5.749 1.073 7.023.8 9.66 2.437a13.673 13.673 0 0 1 6.642 0C18.851.708 20.216.98 20.398 1.072l.455.364c.455 1.274.546 2.548.182 3.821z"
      ></path>
    </symbol>

    <symbol viewBox="0 0 256 256" id="codepen">
      <path
        fill="var(--fill, currentColor)"
        d="M235 95.8L134.9 39a14.1 14.1 0 0 0-13.8 0L21 95.8a6 6 0 0 0-3 5.2v64a6 6 0 0 0 3 5.2L121.1 227a14.1 14.1 0 0 0 13.8 0L235 170.2a6 6 0 0 0 3-5.2v-64a6 6 0 0 0-3-5.2Zm-9 58.9L187.8 133l38.2-21.7Zm-6.2-53.7l-44.2 25.1l-41.6-23.6V52.3ZM128 153.1L92.6 133l35.4-20.1l35.4 20.1Zm-6-100.8v50.2l-41.6 23.6L36.2 101Zm-92 59L68.2 133L30 154.7Zm6.2 53.7l44.2-25.1l41.6 23.6v50.2Zm97.8 48.7v-50.2l41.6-23.6l44.2 25.1Z"
      ></path>
    </symbol>
  </defs>
</svg>
