<svg xmlns="http://www.w3.org/2000/svg">
  <defs>
    <symbol viewBox="0 0 15 15" id="svelte">
      <path
        fill="var(--fill, currentColor)"
        fill-rule="evenodd"
        clip-rule="evenodd"
        d="M13.283 1.944a4.001 4.001 0 0 1-.27 4.622a4 4 0 0 1-1.503 5.09l-4.24 2.65A4 4 0 0 1 2.028 8.41a4 4 0 0 1 1.503-5.09L7.77.671a4 4 0 0 1 5.512 1.273ZM8.3 1.52a3 3 0 0 1 4.13 4.143a3.993 3.993 0 0 0-2.386-1.345l.724-.453l-.53-.848l-5.088 3.18l.53.847L7.8 5.72a3 3 0 1 1 3.18 5.088l-4.24 2.65a3 3 0 0 1-4.13-4.143a3.993 3.993 0 0 0 2.386 1.345l-.725.452l.53.848L9.89 8.78l-.53-.847l-2.12 1.325a3 3 0 0 1-3.18-5.089L8.3 1.52Z"
      ></path>
    </symbol>

    <symbol viewBox="0 0 20 20" id="html">
      <path
        fill="var(--fill, currentColor)"
        d="M4 16v-2H2v2H1v-5h1v2h2v-2h1v5H4zm3 0v-4H5.6v-1h3.7v1H8v4H7zm3 0v-5h1l1.4 3.4h.1L14 11h1v5h-1v-3.1h-.1l-1.1 2.5h-.6l-1.1-2.5H11V16h-1zm9 0h-3v-5h1v4h2v1zM9.4 4.2L7.1 6.5l2.3 2.3l-.6 1.2l-3.5-3.5L8.8 3l.6 1.2zm1.2 4.6l2.3-2.3l-2.3-2.3l.6-1.2l3.5 3.5l-3.5 3.5l-.6-1.2z"
      ></path>
    </symbol>

    <symbol viewBox="0 0 24 24" id="css">
      <path
        fill="var(--fill, currentColor)"
        d="M2.8 14h2.04l-.545 2.725l5.744 2.154l7.227-2.41L18.36 11H3.4l.4-2h14.96l.8-4H4.6L5 3h17l-3 15l-9 3l-8-3z"
      ></path>
    </symbol>

    <symbol viewBox="0 0 32 32" id="scss">
      <path
        fill="var(--fill, #cd6799)"
        d="M16.171 18.7c-.481.221-1.008.509-2.063 1.088c-.4.225-.818.45-1.207.662c-.027-.027-.055-.061-.082-.089c-2.087-2.23-5.947-3.805-5.783-6.8c.061-1.091.436-3.955 7.413-7.433c5.742-2.83 10.311-2.046 11.1-.307c1.134 2.479-2.449 7.092-8.379 7.761a4.469 4.469 0 0 1-3.751-.948c-.314-.341-.361-.361-.477-.293c-.191.1-.068.409 0 .586a3.5 3.5 0 0 0 2.141 1.684a11.4 11.4 0 0 0 6.956-.689c3.594-1.391 6.4-5.258 5.578-8.5c-.825-3.287-6.281-4.371-11.443-2.537a26 26 0 0 0-8.79 5.047c-2.844 2.66-3.294 4.972-3.11 5.94c.662 3.437 5.4 5.674 7.3 7.331c-.1.055-.184.1-.259.143c-.948.471-4.562 2.36-5.463 4.358c-1.023 2.264.164 3.887.948 4.105a5.832 5.832 0 0 0 6.281-2.544a6.3 6.3 0 0 0 .559-5.8a5.03 5.03 0 0 1 .716-.477c.484-.286.945-.568 1.354-.786a10.475 10.475 0 0 1 4.475-.989c3.246.382 3.887 2.407 3.764 3.26a2.157 2.157 0 0 1-1.03 1.459c-.225.143-.3.191-.28.293c.027.15.136.143.327.116a2.535 2.535 0 0 0 1.766-2.257c.1-2-1.807-4.194-5.183-4.174a7.753 7.753 0 0 0-2.946.587q-.225.093-.437.2Zm-4.825 7.839c-1.078 1.173-2.578 1.616-3.226 1.241c-.7-.4-.423-2.135.9-3.376a17.18 17.18 0 0 1 2.53-1.889c.157-.1.389-.232.668-.4l.075-.041l.164-.1a4.658 4.658 0 0 1-1.111 4.565Z"
      ></path>
    </symbol>

    <symbol viewBox="0 0 15 15" id="svg">
      <path
        fill="var(--fill, currentColor)"
        d="M13.5 3.5h.5v-.207l-.146-.147l-.354.354Zm-3-3l.354-.354L10.707 0H10.5v.5Zm-8 6V6H2v.5h.5Zm0 2H2V9h.5v-.5Zm2 0H5V8h-.5v.5Zm0 2v.5H5v-.5h-.5Zm2-1H6v.207l.146.147L6.5 9.5Zm1 1l-.354.354l.354.353l.354-.353L7.5 10.5Zm1-1l.354.354L9 9.707V9.5h-.5Zm2-3V6H10v.5h.5Zm0 4H10v.5h.5v-.5Zm2 0v.5h.5v-.5h-.5ZM2 5V1.5H1V5h1Zm11-1.5V5h1V3.5h-1ZM2.5 1h8V0h-8v1Zm7.646-.146l3 3l.708-.708l-3-3l-.708.708ZM2 1.5a.5.5 0 0 1 .5-.5V0A1.5 1.5 0 0 0 1 1.5h1ZM1 12v1.5h1V12H1Zm1.5 3h10v-1h-10v1ZM14 13.5V12h-1v1.5h1ZM12.5 15a1.5 1.5 0 0 0 1.5-1.5h-1a.5.5 0 0 1-.5.5v1ZM1 13.5A1.5 1.5 0 0 0 2.5 15v-1a.5.5 0 0 1-.5-.5H1ZM5 6H2.5v1H5V6Zm-3 .5v2h1v-2H2ZM2.5 9h2V8h-2v1ZM4 8.5v2h1v-2H4Zm.5 1.5H2v1h2.5v-1ZM6 6v3.5h1V6H6Zm.146 3.854l1 1l.708-.708l-1-1l-.708.708Zm1.708 1l1-1l-.708-.708l-1 1l.708.708ZM9 9.5V6H8v3.5h1ZM13 6h-2.5v1H13V6Zm-3 .5v4h1v-4h-1Zm.5 4.5h2v-1h-2v1Zm2.5-.5v-2h-1v2h1Z"
      ></path>
    </symbol>

    <symbol viewBox="0 0 24 24" id="json">
      <path
        fill="var(--fill, currentColor)"
        d="M5 3h2v2H5v5a2 2 0 0 1-2 2a2 2 0 0 1 2 2v5h2v2H5c-1.07-.27-2-.9-2-2v-4a2 2 0 0 0-2-2H0v-2h1a2 2 0 0 0 2-2V5a2 2 0 0 1 2-2m14 0a2 2 0 0 1 2 2v4a2 2 0 0 0 2 2h1v2h-1a2 2 0 0 0-2 2v4a2 2 0 0 1-2 2h-2v-2h2v-5a2 2 0 0 1 2-2a2 2 0 0 1-2-2V5h-2V3h2m-7 12a1 1 0 0 1 1 1a1 1 0 0 1-1 1a1 1 0 0 1-1-1a1 1 0 0 1 1-1m-4 0a1 1 0 0 1 1 1a1 1 0 0 1-1 1a1 1 0 0 1-1-1a1 1 0 0 1 1-1m8 0a1 1 0 0 1 1 1a1 1 0 0 1-1 1a1 1 0 0 1-1-1a1 1 0 0 1 1-1Z"
      ></path>
    </symbol>

    <symbol viewBox="0 0 24 24" id="figma">
      <path
        fill="var(--fill, currentColor)"
        d="M15.852 8.981h-4.588V0h4.588c2.476 0 4.49 2.014 4.49 4.49s-2.014 4.491-4.49 4.491zM12.735 7.51h3.117c1.665 0 3.019-1.355 3.019-3.019s-1.355-3.019-3.019-3.019h-3.117V7.51zm0 1.471H8.148c-2.476 0-4.49-2.014-4.49-4.49S5.672 0 8.148 0h4.588v8.981zm-4.587-7.51c-1.665 0-3.019 1.355-3.019 3.019s1.354 3.02 3.019 3.02h3.117V1.471H8.148zm4.587 15.019H8.148c-2.476 0-4.49-2.014-4.49-4.49s2.014-4.49 4.49-4.49h4.588v8.98zM8.148 8.981c-1.665 0-3.019 1.355-3.019 3.019s1.355 3.019 3.019 3.019h3.117V8.981H8.148zM8.172 24c-2.489 0-4.515-2.014-4.515-4.49s2.014-4.49 4.49-4.49h4.588v4.441c0 2.503-2.047 4.539-4.563 4.539zm-.024-7.51a3.023 3.023 0 0 0-3.019 3.019c0 1.665 1.365 3.019 3.044 3.019c1.705 0 3.093-1.376 3.093-3.068v-2.97H8.148zm7.704 0h-.098c-2.476 0-4.49-2.014-4.49-4.49s2.014-4.49 4.49-4.49h.098c2.476 0 4.49 2.014 4.49 4.49s-2.014 4.49-4.49 4.49zm-.097-7.509c-1.665 0-3.019 1.355-3.019 3.019s1.355 3.019 3.019 3.019h.098c1.665 0 3.019-1.355 3.019-3.019s-1.355-3.019-3.019-3.019h-.098z"
      ></path>
    </symbol>

    <symbol viewBox="0 0 25 26" id="gsap">
      <path
        fill="var(--fill, currentColor)"
        d="M1.01152 1V0.25C0.608627 0.25 0.277715 0.568315 0.262085 0.970905L1.01152 1ZM13.2263 1L13.9712 1.08705C13.9961 0.874421 13.9289 0.661311 13.7866 0.501395C13.6442 0.341479 13.4404 0.25 13.2263 0.25V1ZM12.5078 16.6495L11.9399 17.1394L12.5078 16.6495ZM22.9774 20.957L23.2143 20.2455C23.204 20.242 23.1936 20.2388 23.1832 20.2358L22.9774 20.957ZM21.9784 24L21.971 24.75L21.9821 24.7501L21.9932 24.7499L21.9784 24ZM12.8741 4.49248L13.6195 4.57524L13.6195 4.57524L12.8741 4.49248ZM2.99794 18.4624L3.68383 18.7658L3.70292 18.7227L3.71645 18.6775L2.99794 18.4624ZM1.73923 8.98282L1.00564 9.13886L1.00564 9.13886L1.73923 8.98282ZM3.40658 24L3.17834 24.7144L3.29182 24.7507L3.41094 24.75L3.40658 24ZM2.49846 19.9592L1.78655 19.7232L1.78655 19.7232L2.49846 19.9592ZM6.99383 19.9592H7.74383C7.74383 19.545 7.40804 19.2092 6.99383 19.2092V19.9592ZM6.99383 24L6.99313 24.75L6.99754 24.75L6.99383 24ZM1.01152 1.75H13.2263V0.25H1.01152V1.75ZM11.9399 17.1394C12.1276 17.357 12.3975 17.5557 12.6653 17.7283C12.9463 17.9094 13.2811 18.0967 13.6411 18.2828C14.3618 18.6554 15.224 19.0441 16.0453 19.3942C16.8688 19.7452 17.6618 20.062 18.2482 20.2907C18.5417 20.4052 18.784 20.4979 18.9532 20.562C19.0379 20.5941 19.1043 20.6191 19.1497 20.6361C19.1724 20.6446 19.1899 20.6511 19.2018 20.6555C19.2077 20.6578 19.2123 20.6594 19.2154 20.6606C19.2169 20.6612 19.2181 20.6616 19.2189 20.6619C19.2194 20.6621 19.2197 20.6622 19.2199 20.6623C19.22 20.6623 19.2201 20.6624 19.2202 20.6624C19.2203 20.6624 19.2203 20.6625 19.481 19.9592C19.7416 19.2559 19.7416 19.2559 19.7416 19.2559C19.7416 19.2559 19.7415 19.2559 19.7415 19.2559C19.7413 19.2558 19.7411 19.2557 19.7408 19.2556C19.7401 19.2554 19.7391 19.255 19.7378 19.2545C19.7351 19.2535 19.7309 19.252 19.7254 19.2499C19.7143 19.2458 19.6977 19.2396 19.6758 19.2314C19.6321 19.215 19.5676 19.1908 19.4849 19.1594C19.3195 19.0967 19.0817 19.0058 18.7934 18.8933C18.2161 18.6681 17.4383 18.3574 16.6335 18.0143C15.8265 17.6703 15.0029 17.2982 14.33 16.9503C13.9931 16.7762 13.704 16.6132 13.4778 16.4675C13.2385 16.3132 13.118 16.2086 13.0757 16.1596L11.9399 17.1394ZM19.2751 20.6804L22.7715 21.6782L23.1832 20.2358L19.6868 19.238L19.2751 20.6804ZM22.7404 21.6686C23.108 21.791 23.3023 22.1592 23.2383 22.5139C23.1895 22.7844 22.9315 23.231 21.9636 23.2501L21.9932 24.7499C23.5227 24.7196 24.5135 23.8942 24.7144 22.7802C24.9002 21.7506 24.3452 20.622 23.2143 20.2455L22.7404 21.6686ZM1.16772 5.24248H12.8741V3.74248H1.16772V5.24248ZM3.71645 18.6775C4.36217 16.5199 4.24988 14.9835 3.8568 13.4842C3.66796 12.7639 3.41064 12.0407 3.16697 11.306C2.91933 10.5593 2.67162 9.76141 2.47281 8.82677L1.00564 9.13886C1.22135 10.1529 1.48886 11.0112 1.74322 11.7782C2.00156 12.5572 2.23303 13.2054 2.40584 13.8646C2.7361 15.1243 2.83864 16.3789 2.27943 18.2474L3.71645 18.6775ZM2.47281 8.82677C2.21136 7.59767 2.0804 5.7355 1.91183 4.39866L0.423617 4.58631C0.573379 5.77401 0.727808 7.83275 1.00564 9.13886L2.47281 8.82677ZM1.91183 4.39866C1.78709 3.40936 1.72274 2.01337 1.76096 1.0291L0.262085 0.970905C0.220545 2.04088 0.289055 3.51916 0.423617 4.58631L1.91183 4.39866ZM12.4814 0.912953C12.3573 1.97486 12.2264 3.52924 12.1287 4.40973L13.6195 4.57524C13.7341 3.54362 13.8381 2.22671 13.9712 1.08705L12.4814 0.912953ZM12.1287 4.40973C11.9864 5.69126 11.7522 7.85979 11.6496 8.90991L13.1425 9.05573C13.244 8.01633 13.4773 5.85638 13.6195 4.57524L12.1287 4.40973ZM11.6496 8.90991C11.3925 11.5427 11.1585 13.234 11.1236 14.3639C11.1057 14.9458 11.1359 15.4505 11.2646 15.9107C11.398 16.3875 11.6251 16.7745 11.9399 17.1394L13.0757 16.1596C12.8812 15.9342 12.7741 15.7389 12.7091 15.5065C12.6395 15.2575 12.607 14.9261 12.6229 14.4101C12.6558 13.3443 12.8752 11.7926 13.1425 9.05573L11.6496 8.90991ZM1.73923 9.73282H12.3961V8.23282H1.73923V9.73282ZM3.63481 23.2856C3.35921 23.1975 3.19738 23.0727 3.0941 22.9424C2.98752 22.808 2.9077 22.6222 2.8707 22.3624C2.79309 21.8174 2.92065 21.0692 3.21037 20.1952L1.78655 19.7232C1.47527 20.6623 1.25829 21.6794 1.38568 22.5739C1.45119 23.0339 1.61126 23.4865 1.9186 23.8742C2.22923 24.2661 2.65535 24.5474 3.17834 24.7144L3.63481 23.2856ZM3.21037 20.1952C3.35447 19.7604 3.50783 19.1637 3.68383 18.7658L2.31205 18.159C2.09953 18.6394 1.8766 19.4516 1.78655 19.7232L3.21037 20.1952ZM2.49846 20.7092H6.99383V19.2092H2.49846V20.7092ZM21.9858 23.25L16.991 23.2006L16.9761 24.7006L21.971 24.75L21.9858 23.25ZM16.9798 23.2006L6.99012 23.25L6.99754 24.75L16.9872 24.7006L16.9798 23.2006ZM6.99453 23.25C6.46112 23.2495 3.98066 23.2466 3.40221 23.25L3.41094 24.75C3.9827 24.7467 6.45476 24.7495 6.99313 24.75L6.99453 23.25ZM6.24383 19.9592V24H7.74383V19.9592H6.24383ZM18.8452 19.5614L16.3477 23.5528L17.6193 24.3484L20.1168 20.357L18.8452 19.5614Z"
      />
    </symbol>
  </defs>
</svg>
